<?xml version="1.0" encoding="iso-8859-1"?>
<!-- Generator: Adobe Illustrator 19.2.0, SVG Export Plug-In . SVG Version: 6.00 Build 0)  -->
<svg xmlns="http://www.w3.org/2000/svg" xmlns:xlink="http://www.w3.org/1999/xlink" version="1.1" id="Layer_1" x="0px" y="0px" viewBox="0 0 40 40" style="enable-background:new 0 0 40 40;" xml:space="preserve">
<g>
	<path style="fill:#DFF0FE;" d="M20,38.5C9.799,38.5,1.5,30.201,1.5,20S9.799,1.5,20,1.5S38.5,9.799,38.5,20S30.201,38.5,20,38.5z"/>
	<g>
		<path style="fill:#4788C7;" d="M20,2c9.925,0,18,8.075,18,18s-8.075,18-18,18S2,29.925,2,20S10.075,2,20,2 M20,1    C9.507,1,1,9.507,1,20s8.507,19,19,19s19-8.507,19-19S30.493,1,20,1L20,1z"/>
	</g>
</g>
<g>
	<g>
		<path style="fill:#FFFFFF;" d="M20,31.5c-0.621,0-1.221-0.237-1.688-0.668l-0.084-0.078l-0.11-0.033    C15.356,29.886,13.5,27.386,13.5,24.5v-9.303c0-1.564,1.272-2.836,2.836-2.836h7.328c1.564,0,2.836,1.272,2.836,2.836V24.5    c0,2.886-1.856,5.386-4.618,6.221l-0.11,0.033l-0.084,0.078C21.221,31.263,20.621,31.5,20,31.5z"/>
	</g>
	<g>
		<path style="fill:#4788C7;" d="M23.664,12.861c1.288,0,2.336,1.048,2.336,2.336V24.5c0,2.623-1.753,4.984-4.263,5.742l-0.22,0.066    l-0.169,0.156C20.974,30.81,20.495,31,20,31s-0.974-0.19-1.349-0.536l-0.169-0.156l-0.22-0.066C15.753,29.484,14,27.123,14,24.5    v-9.303c0-1.288,1.048-2.336,2.336-2.336H23.664 M23.664,11.861h-7.328c-1.842,0-3.336,1.494-3.336,3.336V24.5    c0,3.161,2.096,5.83,4.973,6.699C18.508,31.692,19.216,32,20,32s1.492-0.308,2.027-0.801C24.904,30.33,27,27.661,27,24.5v-9.303    C27,13.355,25.506,11.861,23.664,11.861L23.664,11.861z"/>
	</g>
</g>
<g>
	<path style="fill:#B6DCFE;" d="M28,30.5c-1.714,0-3.314-0.477-4.222-0.81c1.015-0.895,2.722-2.872,2.722-6.048v-4.724   c0-2.41-2.086-4.223-2.175-4.298l-0.43-0.368l-0.313,0.473c-0.021,0.031-2.135,3.156-6.651,3.78   c-2.358,0.325-3.432,2.109-3.432,3.628v1.509c0,3.22,1.691,5.17,2.709,6.053C15.304,30.028,13.717,30.5,12,30.5   c-1.786,0-3.378-0.935-4.159-1.484c0.881-0.695,2.445-2.24,2.445-4.444c0-0.928-0.176-1.909-0.362-2.948   C9.715,20.462,9.5,19.262,9.5,18c0-8.488,5.387-11.5,10-11.5c3.802,0,5.031,2.675,5.043,2.703L24.674,9.5H25   c3.495,0,5.5,2.733,5.5,7.5c0,1.342-0.268,2.836-0.528,4.281C29.729,22.634,29.5,23.913,29.5,25c0,1.844,1.459,2.852,2.642,3.281   C31.434,29.092,29.928,30.5,28,30.5z"/>
	<g>
		<path style="fill:#4788C7;" d="M19.5,7c3.427,0,4.543,2.315,4.586,2.405L24.349,10H25c3.224,0,5,2.486,5,7    c0,1.298-0.264,2.769-0.52,4.193C29.233,22.569,29,23.868,29,25c0,1.764,1.141,2.855,2.289,3.45C30.545,29.165,29.38,30,28,30    c-1.236,0-2.413-0.26-3.29-0.525C25.755,28.353,27,26.43,27,23.643v-4.724c0-2.638-2.254-4.596-2.35-4.678l-0.864-0.739    l-0.623,0.951c-0.019,0.03-1.985,2.961-6.3,3.557C14.209,18.376,13,20.404,13,22.133v1.509c0,2.818,1.229,4.727,2.272,5.839    C14.4,29.744,13.233,30,12,30c-1.313,0-2.525-0.556-3.331-1.041c0.942-0.88,2.117-2.379,2.117-4.388    c0-0.972-0.18-1.975-0.37-3.036C10.211,20.396,10,19.218,10,18C10,9.881,15.118,7,19.5,7 M19.5,6C14.212,6,9,9.694,9,18    c0,2.454,0.786,4.682,0.786,6.571C9.786,27.327,7,29,7,29s2.254,2,5,2c2.794,0,5.211-1.176,5.211-1.176S14,27.918,14,23.643    c0-0.613,0-0.56,0-1.509c0-1.354,0.942-2.849,3-3.134c4.816-0.665,7-4,7-4s2,1.711,2,3.919c0,1.044,0,3.009,0,4.724    c0,4.194-3.214,6.183-3.214,6.183S25.225,31,28,31c3.005,0,5-3,5-3s-3-0.535-3-3c0-2.19,1-5.352,1-8c0-5.761-2.766-8-6-8    C25,9,23.672,6,19.5,6L19.5,6z"/>
	</g>
</g>
</svg>
